<svg width="14" height="15" viewBox="0 0 14 15" fill="none" xmlns="http://www.w3.org/2000/svg">
<path d="M12.9138 5.67366H3.70761L6.07795 2.56708C6.18467 2.43676 6.27026 2.27959 6.32963 2.10497C6.389 1.93034 6.42092 1.74183 6.42349 1.55069C6.42607 1.35954 6.39924 1.16968 6.34461 0.992414C6.28998 0.815153 6.20867 0.654129 6.10552 0.518948C6.00238 0.383767 5.87951 0.277198 5.74426 0.205599C5.60901 0.134001 5.46414 0.0988388 5.3183 0.102211C5.17245 0.105584 5.02862 0.147422 4.89538 0.225229C4.76214 0.303036 4.64222 0.415219 4.54278 0.555085L0.325893 6.08176C0.222053 6.21339 0.139642 6.37124 0.0836359 6.54578C0.0276297 6.72031 -0.000810686 6.90791 3.1536e-05 7.09724C-0.00106705 7.28578 0.0265474 7.4727 0.0812579 7.64707C0.135968 7.82144 0.216675 7.97975 0.318652 8.11273L4.54278 13.6489C4.64222 13.7888 4.76214 13.9009 4.89538 13.9788C5.02862 14.0566 5.17245 14.0984 5.3183 14.1018C5.46414 14.1051 5.60901 14.07 5.74426 13.9984C5.87951 13.9268 6.00238 13.8202 6.10552 13.685C6.20867 13.5499 6.28998 13.3888 6.34461 13.2116C6.39924 13.0343 6.42607 12.8444 6.42349 12.6533C6.42092 12.4621 6.389 12.2736 6.32963 12.099C6.27026 11.9244 6.18467 11.7672 6.07795 11.6369L3.70761 8.52083H12.9138C13.2019 8.52083 13.4782 8.37084 13.6819 8.10387C13.8856 7.8369 14 7.4748 14 7.09724C14 6.71969 13.8856 6.35759 13.6819 6.09062C13.4782 5.82365 13.2019 5.67366 12.9138 5.67366Z" fill="#275BEC"/>
</svg>
