<svg width="30" height="30" viewBox="0 0 30 30" fill="none" xmlns="http://www.w3.org/2000/svg">
<path d="M0 15C0 6.71573 6.71573 0 15 0C23.2843 0 30 6.71573 30 15C30 23.2843 23.2843 30 15 30C6.71573 30 0 23.2843 0 15Z" fill="#E7A243"/>
<path d="M9.77559 25.0503V6.86848H11.9773V15.8884H12.1904L20.358 6.86848H23.2344L15.5995 15.0716L23.2344 25.0503H20.571L14.25 16.5986L11.9773 19.1554V25.0503H9.77559Z" fill="black"/>
<path d="M9.52413 6.33294L22.4846 4.94971L9.18896 19.3627L9.52413 6.33294Z" fill="#E7A243"/>
<path d="M6.76556 6.8678H11.7521V8.8678H6.76556V6.8678Z" fill="white"/>
<path d="M9.75842 13.8544V8.8678H11.7521V13.8544H9.75842Z" fill="white"/>
<path d="M11.7521 14.8649L9.75842 15.9916V13.7382L11.7521 14.8649Z" fill="white"/>
<path d="M9.76249 13.7283H11.7521V14.8589H9.76249V13.7283Z" fill="white"/>
</svg>
