<svg width="32" height="32" viewBox="0 0 32 32" fill="none" xmlns="http://www.w3.org/2000/svg">
<g clip-path="url(#clip0_9_53)">
<path fill-rule="evenodd" clip-rule="evenodd" d="M16 0C24.8369 0 32 7.16313 32 16C32 24.8369 24.8369 32 16 32C7.16313 32 0 24.8369 0 16C0 7.16313 7.16313 0 16 0Z" fill="url(#paint0_linear_9_53)"/>
<path d="M23.2013 10.2194L20.9231 21.7037C20.9231 21.7037 20.6044 22.5 19.7288 22.1181L14.4725 18.0881L12.5606 17.1644L9.34314 16.0812C9.34314 16.0812 8.84939 15.9056 8.80189 15.5237C8.75376 15.1412 9.35939 14.9344 9.35939 14.9344L22.15 9.91687C22.15 9.91687 23.2013 9.45499 23.2013 10.2194Z" fill="#FEFEFE"/>
<path d="M16.525 19.91L14.2869 21.9506C14.2869 21.9506 14.1125 22.0831 13.9206 22C13.6388 21.9594 12.8119 19.0119 12.2988 17.2531L12.7281 16.98L16.525 19.91Z" fill="#B5D2E5"/>
<path d="M13.9206 22C13.6156 21.9712 12.4556 17.7669 12.2988 17.2531L20.6131 11.9725C21.0456 11.71 21.2769 11.9169 20.9044 12.2644C20.6475 12.5044 14.3731 18.1444 14.3731 18.1444L13.9206 22Z" fill="#D3E7F2"/>
</g>
<defs>
<linearGradient id="paint0_linear_9_53" x1="4.23938" y1="5.15125" x2="29.6369" y2="24.3737" gradientUnits="userSpaceOnUse">
<stop stop-color="#28AAE0"/>
<stop offset="1" stop-color="#23B7EC"/>
</linearGradient>
<clipPath id="clip0_9_53">
<rect width="32" height="32" fill="white"/>
</clipPath>
</defs>
</svg>
